<?xml version="1.0" encoding="utf-8"?>
<!-- Generator: Adobe Illustrator 18.0.0, SVG Export Plug-In . SVG Version: 6.00 Build 0)  -->
<!DOCTYPE svg PUBLIC "-//W3C//DTD SVG 1.1//EN" "http://www.w3.org/Graphics/SVG/1.1/DTD/svg11.dtd">
<svg version="1.1" id="Warstwa_47_kopia_copy" xmlns="http://www.w3.org/2000/svg" xmlns:xlink="http://www.w3.org/1999/xlink"
	 x="0px" y="0px" viewBox="0 0 250 250" enable-background="new 0 0 250 250" xml:space="preserve">
<g id="Warstwa_49_kopia_copy">
	<path fill="#F4EAE4" d="M102.3,121.1c2-1.3,4.8-0.9,7.5-0.3c2.7,0.5,9,0.3,14.7-1.7c5.6-2,10.1-4.6,13.5-6c3.4-1.4,4.4-1.2,6.5,1.2
		c2,2.4,2.6,5.3,3.4,9.7c0.9,4.4,2.2,8.9,3.2,11.4c1,2.6,2.2,5.3,2.2,5.3s1.5-3.6,3.2-5.6c1.7-2,4.1-3.6,5.5-1
		c1.4,2.6,2.2,7.7,2,11.4c-0.2,3.8-1,6.1-3.1,7.2c-2,1-2.9,1.2-2.9,1.2s1.9,7.7,1.5,12.1c-0.3,4.4-2,8.4-2,10.9
		c0,2.6,0.7,6.5,1.4,9.6c0.7,3.1,1.2,4.8,1.2,4.8s1.2,0.9,2.9,2c1.7,1.2,4.1,2.2,4.1,2.2s-1.7,4.9-7.2,7.9c-5.5,2.9-12.3,6.1-21.3,6
		c-9-0.2-15.5-2.6-18.4-4.8c-2.9-2.2-4.6-4.9-4.6-4.9l4.8-2.7c0,0-0.7-7.7-2.9-10.9c-2.2-3.2-6.3-6.8-8.7-11.4
		c-2.4-4.6-3.6-8.5-3.6-8.5s-3.6,1.5-5.8-1.2s-4.3-8.5-4.6-10.9c-0.3-2.4,0-2.7,1-4.1c1-1.4,1-1.4,1-1.4s1,0.7,3.8,1.7
		c2.7,1,2.7,1,2.7,1s-2.4-10.2-3.4-16.6C98.9,128.3,98.4,123.7,102.3,121.1z"/>
	<path fill="#CEBDB7" d="M125.9,157.5c0,0,1.5,1.4,5.6,0.2c4.1-1.2,4.8-2.9,4.8-2.9s1.4,6.1-2.9,7.7
		C129.1,164,126,159.9,125.9,157.5z"/>
	<path fill="#CEBDB7" d="M118.9,184.8c0,0,7.5,3.8,19.1,0.7c11.6-3.1,16.9-9.2,16.9-9.2s-1.9,14.5-15.2,17.6
		C126.4,196.9,120.4,187.7,118.9,184.8z"/>
	<path fill="#566867" d="M104,151.3c0,0-4.6-0.7-6.7-3.9s-5.6-15.5-5.3-20.1c0.3-4.6,4.1-15.7,8.4-20.7c4.3-4.9,10.9-9,17.7-9.9
		c6.8-0.9,13.5-1,20.8,2.4c7.3,3.4,10.6,5.6,13,10.6c2.4,4.9,3.8,10.8,4.8,15.9c1,5.1,1.5,7.5,1.5,7.5s-1.2,1.7-2.6,4.3
		s-2.6,4.1-2.6,4.1s-3.8-9.6-4.6-14.2c-0.9-4.6-1.5-10.6-4.1-13c-2.6-2.4-2.7-3.6-7.7-0.9c-4.9,2.7-8.7,4.9-14.7,6.1
		c-6,1.2-11.8,1-15,0.7c-3.2-0.3-7.2,1.9-7.7,6.1c-0.5,4.3,1,11.8,2.4,15.7C103.2,146,104,151.3,104,151.3z"/>
	<path fill="#ED6242" d="M115.6,199.6c0,0,4.9,6.8,13.1,8.5c8.2,1.7,18.4,1,24.4-1.4s8.9-4.1,11.1-6.7c2.2-2.6,2.9-4.6,2.9-4.6
		s4.1,1.5,10.2,3.4c6.1,1.9,15.2,6,18.4,12.1c3.2,6.1,4.8,12.3,5.8,15.9c1,3.6,1.7,7.5,1.7,7.5s-12.1,3.6-27.1,5.5
		c-15,1.9-34.5,3.6-51,2.6c-16.6-1-27.6-3.1-33.4-5.1c-5.8-2-7.7-3.1-7.7-3.1s2.7-13.5,6.3-18.8s6.1-7.2,14.3-10.8
		S115.6,199.6,115.6,199.6z"/>
</g>
<g id="Warstwa_48_kopia_copy">
	<path fill="none" stroke="#4C5250" stroke-width="2" stroke-miterlimit="10" d="M84.1,234.2c0,0,3.2-21.5,13.1-26
		c9.9-4.5,23.1-11.2,23.1-11.2s-0.6-8-2.9-11.2c-2.2-3.2-6.1-5.8-8.3-10.9c-2.2-5.1-3.8-8.7-3.8-8.7s-4.8,2.2-7.7-4.5
		c-2.9-6.7-3.5-10.3-1.6-11.9c1.9-1.6,1.9-1.6,1.9-1.6s-8-15.4-5.1-25.7c2.9-10.3,8-21.5,24.4-25.7c16.4-4.2,28.9,4.8,33.7,11.2
		c4.8,6.4,7.1,25,7.1,25s3.9-2.6,5.5,4.5c1.6,7.1,1,13.8-2.2,14.8c-3.2,1-3.2,1-3.2,1s2.9,9.6,1.3,16c-1.6,6.4-2.2,8.3-0.6,15.1
		c1.6,6.7,1.6,6.7,1.6,6.7s6.4,4.5,16,7.4c9.6,2.9,16.6,6.3,21.2,15.4c1.9,3.8,6.4,20.5,6.4,20.5s-6.6,2.6-22.8,4.8
		C153.6,243.1,107.7,246.1,84.1,234.2z"/>
	<path fill="none" stroke="#4C5250" stroke-width="2" stroke-miterlimit="10" d="M116.2,200.2c0,0,6.4,10.9,26.9,8.7
		c20.5-2.2,24.4-13.1,24.4-13.1"/>
	<path fill="none" stroke="#4C5250" stroke-width="2" stroke-miterlimit="10" d="M97.9,148.3c0,0,1.7,2,3.9,2.6s2.2,0.5,2.2,0.5
		s-5.6-20-4.6-25.1s3.9-6.5,7.5-6.1s8.7,1.7,17.7-1.2c9-2.9,15-8.9,18.4-6c3.4,2.9,3.4,5.5,5.1,12.6c1.7,7.2,5.1,15.4,5.1,15.4
		s1.2-1.5,2.2-3.9c1-2.4,2.3-3.8,2.3-3.8"/>
	<path fill="none" stroke="#4C5250" stroke-width="2" stroke-miterlimit="10" d="M107.8,134.4c0,0,1.9-3.6,6.1-4.3
		c4.3-0.7,6.7,1.9,6.7,1.9"/>
	<path fill="none" stroke="#4C5250" stroke-width="2" stroke-miterlimit="10" d="M131.8,135.8c0,0,4.1-1.4,7-3.6
		c2.9-2.2,4.1-3.6,4.1-3.6"/>
	<circle fill="#4C5250" cx="116.5" cy="144.3" r="3.4"/>
	<circle fill="#4C5250" cx="138.8" cy="138.6" r="3.4"/>
	<path fill="none" stroke="#4C5250" stroke-width="2" stroke-miterlimit="10" d="M125.2,174.2c0,0,3.9-3.1,10.8-4.9
		c5.6-1.5,7.4-2.8,9.7-4.8"/>
</g>
<g id="Warstwa_50_kopia_copy">
	<path fill="#EFEFEF" stroke="#4C5250" stroke-width="2" stroke-miterlimit="15" d="M140.1,8.2h-29.9c-10,0-18.2,8.2-18.2,18.2v29.9
		c0,10,8.2,18.2,18.2,18.2h5.8c0.3,4.8,4.3,8.5,9.1,8.5s8.8-3.8,9.1-8.5h5.8c10,0,18.2-8.2,18.2-18.2V26.4
		C158.3,16.4,150.1,8.2,140.1,8.2z"/>
	<path fill="#EFEFEF" stroke="#4C5250" stroke-width="2" stroke-miterlimit="15" d="M197.7,23.6h-29.9c-10,0-18.2,8.2-18.2,18.2
		v29.9c0,1.9,0.3,3.7,0.8,5.4c-2.5,1.6-4.2,4.4-4.2,7.7c0,5,4.1,9.1,9.1,9.1c3.4,0,6.3-1.8,7.9-4.6c1.5,0.4,3,0.6,4.6,0.6h29.9
		c10,0,18.2-8.2,18.2-18.2V41.8C215.9,31.8,207.7,23.6,197.7,23.6z"/>
	<path fill="#EFEFEF" stroke="#4C5250" stroke-width="2" stroke-miterlimit="15" d="M223.4,81.9h-29.9c-9.9,0-18,8-18.2,17.9
		c-2.5,0-4.8,1-6.4,2.7c0,0,0,0,0,0c-0.2,0.2-0.4,0.4-0.6,0.6c0,0,0,0.1-0.1,0.1c-0.2,0.2-0.3,0.4-0.4,0.6c0,0.1-0.1,0.1-0.1,0.2
		c-0.1,0.2-0.2,0.4-0.4,0.6c0,0.1-0.1,0.2-0.1,0.2c-0.1,0.2-0.2,0.4-0.3,0.6c0,0.1-0.1,0.2-0.1,0.3c-0.1,0.2-0.1,0.3-0.2,0.5
		c0,0.1-0.1,0.3-0.1,0.4c0,0.1-0.1,0.3-0.1,0.4c0,0.2-0.1,0.4-0.1,0.5c0,0.1,0,0.2-0.1,0.4c0,0.3,0,0.6,0,0.9s0,0.6,0,0.9
		c0,0.1,0,0.3,0.1,0.4c0,0.2,0,0.3,0.1,0.5c0,0.2,0.1,0.3,0.1,0.5c0,0.1,0.1,0.3,0.1,0.4c0.1,0.2,0.1,0.3,0.2,0.5
		c0,0.1,0.1,0.2,0.1,0.4c0.1,0.2,0.2,0.4,0.3,0.5c0,0.1,0.1,0.2,0.1,0.3c0.1,0.2,0.2,0.4,0.3,0.6c0,0.1,0.1,0.1,0.1,0.2
		c0.1,0.2,0.3,0.4,0.4,0.6c0,0,0.1,0.1,0.1,0.1c0.2,0.2,0.3,0.4,0.5,0.6c0,0,0,0,0.1,0.1c0.2,0.2,0.4,0.4,0.6,0.6c0,0,0,0,0,0
		c1.6,1.3,3.6,2.1,5.8,2.1v12c0,10,8.2,18.2,18.2,18.2h29.9c10,0,18.2-8.2,18.2-18.2v-29.9C241.7,90.1,233.5,81.9,223.4,81.9z"/>
	<path fill="#EFEFEF" stroke="#4C5250" stroke-width="2" stroke-miterlimit="15" d="M100.1,77.1c0.5-1.7,0.8-3.5,0.8-5.4V41.8
		c0-10-8.2-18.2-18.2-18.2H52.8c-10,0-18.2,8.2-18.2,18.2v29.9c0,10,8.2,18.2,18.2,18.2h29.9c1.6,0,3.1-0.2,4.6-0.6
		c1.6,2.7,4.5,4.6,7.9,4.6c5,0,9.1-4.1,9.1-9.1C104.2,81.6,102.6,78.7,100.1,77.1z"/>
	<path fill="#EFEFEF" stroke="#4C5250" stroke-width="2" stroke-miterlimit="15" d="M84.1,108.8c0-5-4.1-9.1-9.1-9.1
		c-0.2-9.9-8.3-17.9-18.2-17.9H27c-10,0-18.2,8.2-18.2,18.2v29.9c0,10,8.2,18.2,18.2,18.2h29.9c10,0,18.2-8.2,18.2-18.2v-12
		C80.1,117.9,84.1,113.8,84.1,108.8z"/>
	<g enable-background="new    ">
		<path fill="#566867" d="M37.5,118.5v-2c0-4.6,6.7-6.3,6.7-9.6c0-1.7-1.4-3.2-3.8-3.2c-2.9,0-4.2,1.9-5.2,2.5
			c-0.4,0.2-0.7,0.2-1.1,0l-2.3-2.2c-0.4-0.3-0.3-0.9,0-1.2c0,0,3.3-4.2,9.4-4.2c5,0,9.3,3.4,9.3,8.1c0,5.8-7.3,7.5-7.3,10.4v1.6
			c0,0.6-0.3,1-1,1h-3.9C38,119.5,37.5,119.1,37.5,118.5z M40.4,125.1c2.2,0,4,1.8,4,4s-1.8,3.9-4,3.9s-3.9-1.8-3.9-3.9
			S38.2,125.1,40.4,125.1z"/>
	</g>
	<g>
		<g enable-background="new    ">
			<path fill="#37A8BA" d="M62.5,59.5v-2c0-4.6,6.7-6.3,6.7-9.6c0-1.7-1.4-3.2-3.8-3.2c-2.9,0-4.2,1.9-5.2,2.5
				c-0.4,0.2-0.7,0.2-1.1,0l-2.3-2.2c-0.4-0.3-0.3-0.9,0-1.2c0,0,3.3-4.2,9.4-4.2c5,0,9.3,3.4,9.3,8.1c0,5.8-7.3,7.5-7.3,10.4v1.6
				c0,0.6-0.3,1-1,1h-3.9C63,60.5,62.5,60.1,62.5,59.5z M65.4,66.1c2.2,0,4,1.8,4,4s-1.8,3.9-4,3.9s-3.9-1.8-3.9-3.9
				S63.2,66.1,65.4,66.1z"/>
		</g>
	</g>
	<g enable-background="new    ">
		<path fill="#79A57D" d="M120.5,44.5v-2c0-4.6,6.7-6.3,6.7-9.6c0-1.7-1.4-3.2-3.8-3.2c-2.9,0-4.2,1.9-5.2,2.5
			c-0.4,0.2-0.7,0.2-1.1,0l-2.3-2.2c-0.4-0.3-0.3-0.9,0-1.2c0,0,3.3-4.2,9.4-4.2c5,0,9.3,3.4,9.3,8.1c0,5.8-7.3,7.5-7.3,10.4v1.6
			c0,0.6-0.3,1-1,1h-3.9C121,45.5,120.5,45.1,120.5,44.5z M123.4,51.1c2.2,0,4,1.8,4,4s-1.8,3.9-4,3.9s-3.9-1.8-3.9-3.9
			S121.2,51.1,123.4,51.1z"/>
	</g>
	<g>
		<g enable-background="new    ">
			<path fill="#FFAC73" d="M177.5,59.5v-2c0-4.6,6.7-6.3,6.7-9.6c0-1.7-1.4-3.2-3.8-3.2c-2.9,0-4.2,1.9-5.2,2.5
				c-0.4,0.2-0.7,0.2-1.1,0l-2.3-2.2c-0.4-0.3-0.3-0.9,0-1.2c0,0,3.3-4.2,9.4-4.2c5,0,9.3,3.4,9.3,8.1c0,5.8-7.3,7.5-7.3,10.4v1.6
				c0,0.6-0.3,1-1,1h-3.9C178,60.5,177.5,60.1,177.5,59.5z M180.4,66.1c2.2,0,4,1.8,4,4s-1.8,3.9-4,3.9s-3.9-1.8-3.9-3.9
				S178.2,66.1,180.4,66.1z"/>
		</g>
	</g>
	<g>
		<g enable-background="new    ">
			<path fill="#FF895A" d="M203.5,117.5v-2c0-4.6,6.7-6.3,6.7-9.6c0-1.7-1.4-3.2-3.8-3.2c-2.9,0-4.2,1.9-5.2,2.5
				c-0.4,0.2-0.7,0.2-1.1,0l-2.3-2.2c-0.4-0.3-0.3-0.9,0-1.2c0,0,3.3-4.2,9.4-4.2c5,0,9.3,3.4,9.3,8.1c0,5.8-7.3,7.5-7.3,10.4v1.6
				c0,0.6-0.3,1-1,1h-3.9C204,118.5,203.5,118.1,203.5,117.5z M206.4,124.1c2.2,0,4,1.8,4,4s-1.8,3.9-4,3.9s-3.9-1.8-3.9-3.9
				S204.2,124.1,206.4,124.1z"/>
		</g>
	</g>
</g>
</svg>
