<?xml version="1.0" encoding="utf-8"?>
<!-- Generator: Adobe Illustrator 16.0.0, SVG Export Plug-In . SVG Version: 6.00 Build 0)  -->
<!DOCTYPE svg PUBLIC "-//W3C//DTD SVG 1.1//EN" "http://www.w3.org/Graphics/SVG/1.1/DTD/svg11.dtd">
<svg version="1.1" id="Warstwa_59" xmlns="http://www.w3.org/2000/svg" xmlns:xlink="http://www.w3.org/1999/xlink" x="0px" y="0px"
	 width="250px" height="250px" viewBox="0 0 250 250" enable-background="new 0 0 250 250" xml:space="preserve">
<g id="Warstwa_69_1_">
	<g id="Warstwa_65_1_">
		<polygon fill="#FFFFFF" points="167.483,201.14 142.03,141.221 66.435,128.654 85.281,193.571 		"/>
		<polygon fill="#99D2DA" points="144.616,168.918 135.757,147.441 78.887,138.505 88.864,170.879 		"/>
		<path fill="#79A57D" d="M154.521,191.651l-10.236-23.959c0,0-4.887-4.068-10.009-7.817c-5.121-3.748-8.728-6.879-8.728-6.879
			s-2.598,5.227-3.843,7.264c-1.246,2.038-1.66,3.948-3.826,1.871c-2.165-2.078-8.814-7.435-9.965-7.541
			c-1.152-0.106-1.481,2.356-3.183,6.026c-1.702,3.671-2.894,6.977-4.132,6.317c-1.237-0.66-4.233-2.608-5.792-3.503
			c-1.559-0.895-2.636-1.438-3.104-0.797c-0.468,0.64-3.343,5.909-3.343,5.909l5.167,17.791L154.521,191.651z"/>
		<path fill="#A8BA95" d="M147.874,176.22c0,0-9.313-6.08-11.383-6.611s-2.26,0.066-2.963,1.027c-0.703,0.96-0.808,2.11-0.808,2.11
			s-3.606-3.132-4.931-4.346c-1.323-1.214-1.643-1.449-2.58-0.168c-0.938,1.28-11.14,14.212-11.14,14.212s-1.109,0.171-3.029-1.233
			c-1.921-1.405-7.565-5.781-8.354-5.377c-0.789,0.405-1.257,1.046-4.284,3.501c-3.026,2.455-5.669,3.716-5.669,3.716l0.793,3.283
			l60.993,5.317L147.874,176.22z"/>
	</g>
	<g id="Warstwa_64_1_">
		<polygon fill="none" stroke="#4C5250" stroke-width="2" stroke-miterlimit="10" points="167.686,201.535 142.03,141.221 
			66.232,128.26 85.601,193.806 		"/>
		<polygon fill="none" stroke="#4C5250" stroke-miterlimit="10" points="154.402,191.813 135.917,147.56 78.887,138.507 
			93.73,186.729 		"/>
		<path fill="none" stroke="#4C5250" stroke-miterlimit="10" d="M147.553,175.986c0,0-9.27-5.804-11.499-6.452
			c-2.229-0.648-3.493,3.095-3.493,3.095s-2.487-2.311-3.811-3.524c-1.323-1.216-2.562-1.875-2.562-1.875s-5.985,7.172-8.914,11.173
			c-2.927,4-3.396,4.641-4.037,4.172c-0.64-0.468-8.397-5.654-9.196-6.239c-0.801-0.586-1.835-0.852-3.519,1.112
			c-1.683,1.963-7.863,6.042-7.863,6.042"/>
		<path fill="none" stroke="#4C5250" stroke-miterlimit="10" d="M144.326,167.971c0,0-12.815-10.363-15.897-12.866
			c-3.085-2.503-2.85-2.822-3.979-0.945c-1.128,1.878-4.01,9.846-5.131,9.025c-1.12-0.82-5.921-4.336-8.568-6.765
			c-2.646-2.427-3.436-2.021-3.935-0.668c-0.5,1.356-4.776,12.236-6.217,11.182c-1.441-1.054-8.673-5.611-9.217-4.534
			c-0.542,1.077-2.937,6.699-2.937,6.699"/>
	</g>
</g>
<g id="Warstwa_70_1_">
	<g id="Warstwa_67_1_">
		<polygon fill="#FFFFFF" points="70.389,162.675 159.981,170.251 157.083,234.438 61.029,226.637 		"/>
		<polygon fill="#79A57D" points="70.834,219.951 77.298,170.921 151.514,176.269 149.285,226.415 		"/>
		<polygon fill="#99D2DA" points="103.15,192.984 113.625,194.099 110.951,223.07 99.808,222.18 		"/>
		<polygon fill="#A8BA95" points="108.945,193.652 110.505,179.612 129.003,180.728 129.003,186.521 124.991,189.865 
			121.871,223.74 110.951,223.07 113.625,194.099 		"/>
		<polygon fill="#BBE1E6" points="75.96,180.728 104.042,182.733 99.808,222.18 70.834,219.951 		"/>
		<polygon fill="#566867" points="97.955,198.577 99.028,189.418 95.017,188.973 93.872,198.193 		"/>
		<polygon fill="#566867" points="90.242,197.854 91.284,188.973 87.271,188.525 86.161,197.471 		"/>
		<polygon fill="#566867" points="82.452,197.123 83.538,187.859 79.526,187.412 78.369,196.741 		"/>
		<polygon fill="#566867" points="96.622,209.943 97.616,201.466 93.513,201.085 92.461,209.553 		"/>
		<polygon fill="#566867" points="92.103,212.444 91.005,221.289 95.239,221.733 96.283,212.833 		"/>
		<polygon fill="#566867" points="108.401,204.016 109.057,198.419 106.605,198.146 105.906,203.781 		"/>
		<polygon fill="#566867" points="107.586,210.963 108.194,205.781 105.687,205.549 105.044,210.723 		"/>
		<polygon fill="#566867" points="104.825,212.491 104.154,217.896 106.742,218.167 107.379,212.728 		"/>
		<polygon fill="#566867" points="88.91,209.219 89.902,200.749 85.802,200.368 84.751,208.83 		"/>
		<polygon fill="#566867" points="84.392,211.728 83.26,220.843 87.495,221.287 88.57,212.116 		"/>
		<polygon fill="#566867" points="81.119,208.49 82.112,200.025 78.008,199.644 76.958,208.101 		"/>
		<polygon fill="#566867" points="76.599,211.002 75.515,219.729 79.75,220.174 80.779,211.391 		"/>
		<polygon fill="#BBE1E6" points="121.871,223.74 124.991,189.865 141.262,175.601 151.514,176.269 149.285,226.415 		"/>
		<polygon fill="#79A57D" points="110.059,184.516 128.558,185.63 124.991,189.865 109.614,188.75 		"/>
		<polygon fill="#79A57D" points="113.625,196.997 124.1,197.887 123.877,202.567 112.957,201.677 		"/>
		<polygon fill="#79A57D" points="112.288,209.922 122.985,210.592 122.54,215.271 111.842,214.825 		"/>
		<polygon fill="#37A8BA" points="129.003,186.521 125.883,224.632 129.003,225.077 131.9,184.069 		"/>
		<polygon fill="#37A8BA" points="136.58,180.058 133.238,224.855 136.357,225.3 139.479,177.606 		"/>
		<polygon fill="#37A8BA" points="144.158,175.824 141.261,225.3 144.381,225.746 147.279,176.047 		"/>
	</g>
	<g id="Warstwa_66_1_">
		<polygon fill="none" stroke="#4C5250" stroke-width="2" stroke-miterlimit="10" points="61.251,226.635 70.166,162.45 
			160.205,170.25 157.307,234.436 		"/>
		<polygon fill="none" stroke="#4C5250" stroke-miterlimit="10" points="77.298,170.696 151.736,176.267 149.285,226.413 
			70.612,219.727 		"/>
		<polyline fill="none" stroke="#4C5250" stroke-miterlimit="10" points="76.184,180.726 104.265,182.954 100.03,222.401 		"/>
		<polyline fill="none" stroke="#4C5250" stroke-miterlimit="10" points="103.374,193.205 113.848,194.097 110.951,222.847 		"/>
		<polyline fill="none" stroke="#4C5250" stroke-miterlimit="10" points="122.095,223.515 124.769,190.085 141.483,175.6 		"/>
		<polyline fill="none" stroke="#4C5250" stroke-miterlimit="10" points="108.945,193.65 110.505,179.611 129.227,180.948 
			128.558,186.965 		"/>
	</g>
</g>
<g id="Warstwa_69_kopia_1_">
	<g id="Warstwa_65_kopia_1_">
		<polygon fill="#FFFFFF" points="13.524,130.654 69.453,97.336 137.877,131.845 84.328,173.098 		"/>
		<polygon fill="#99D2DA" points="51.009,118.159 70.842,106.062 122.011,132.439 94.839,152.67 		"/>
		<path fill="#79A57D" d="M29.589,130.654L52,117.366c0,0,6.346-0.396,12.693-0.396c6.347,0,11.106-0.396,11.106-0.396
			s-0.991,5.752-1.189,8.132c-0.198,2.38-0.992,4.165,1.983,3.769c2.975-0.397,11.504-0.793,12.495-0.199
			c0.992,0.595-0.197,2.776-0.991,6.743s-1.786,7.339-0.397,7.538c1.388,0.198,4.957,0.396,6.743,0.594
			c1.786,0.199,2.976,0.397,2.976,1.19s-0.793,6.743-0.793,6.743l-14.677,11.305L29.589,130.654z"/>
		<path fill="#A8BA95" d="M44.067,122.127c0,0,11.106,0.595,13.089,1.388s1.785,1.389,1.785,2.579c0,1.189-0.595,2.181-0.595,2.181
			s4.76-0.397,6.545-0.595c1.785-0.198,2.182-0.199,2.182,1.388s0.595,18.049,0.595,18.049s0.793,0.793,3.173,0.793
			s9.519-0.197,9.916,0.596s0.397,1.586,1.389,5.354c0.991,3.769,2.38,6.347,2.38,6.347l-2.579,2.182l-52.359-31.733L44.067,122.127
			z"/>
	</g>
	<g id="Warstwa_64_kopia_1_">
		<polygon fill="none" stroke="#4C5250" stroke-width="2" stroke-miterlimit="10" points="13.127,130.854 69.453,97.336 
			138.273,131.646 83.931,173.098 		"/>
		<polygon fill="none" stroke="#4C5250" stroke-miterlimit="10" points="29.589,130.854 70.643,106.062 122.011,132.44 
			81.551,162.586 		"/>
		<path fill="none" stroke="#4C5250" stroke-miterlimit="10" d="M44.464,122.128c0,0,10.908,0.793,13.09,1.586
			c2.181,0.793,0.991,4.561,0.991,4.561s3.372-0.396,5.156-0.594c1.786-0.199,3.174,0,3.174,0s0.595,9.322,0.595,14.28
			c0,4.957,0,5.751,0.793,5.751s10.115,0.396,11.106,0.396c0.992,0,1.983,0.396,2.182,2.976c0.199,2.578,2.777,9.52,2.777,9.52"/>
		<path fill="none" stroke="#4C5250" stroke-miterlimit="10" d="M51.802,117.565c0,0,16.462-0.793,20.428-0.992
			c3.966-0.198,3.966-0.594,3.768,1.587c-0.199,2.182-2.579,10.313-1.19,10.313c1.388,0,7.338-0.001,10.909-0.397
			c3.57-0.396,3.967,0.397,3.57,1.785c-0.397,1.389-3.373,12.694-1.587,12.694c1.785,0,10.313,0.595,10.115,1.785
			c-0.199,1.189-1.587,7.14-1.587,7.14"/>
	</g>
</g>
<g id="Warstwa_68_1_">
	<g id="Warstwa_63_1_">
		<polygon fill="#FFFFFF" points="110.231,172.365 178.967,142.682 242.837,187.694 173.614,221.15 		"/>
		<polygon fill="#99D2DA" points="128.682,174.073 177.998,152.84 206.411,172.573 157.328,196.096 		"/>
		<polygon fill="#37A8BA" points="156.576,196.091 206.411,172.573 225.734,185.697 175.231,210.35 		"/>
		<path fill="#FFECC7" d="M157.829,185.238l3.006,1.609c0,0,0.213,1.932,1.931,5.688c1.716,3.757,3.434,6.01,3.434,6.01
			s4.078-1.61,9.658-4.829c5.579-3.219,9.229-6.118,12.341-7.619c3.111-1.502,4.397-1.717,3.755-0.858
			c-0.644,0.858-3.327,3.219-3.971,4.722c-0.643,1.503-2.146,4.506,0.322,3.005c2.469-1.502,7.512-4.292,13.628-8.048
			s12.662-6.761,12.662-6.761l11.14,7.541l-50.503,24.652l-11.179-8.479c0,0-2.681-4.185-4.077-8.478
			C158.58,189.102,157.829,185.238,157.829,185.238z"/>
		<ellipse fill="#FFECC7" cx="186.856" cy="170.323" rx="7.458" ry="4.936"/>
		<path fill="#79A57D" d="M157.829,185.238c0,0-2.707-1.559-4.41-0.099c-1.704,1.46-3.406,3.041-3.406,3.041
			s-2.189-2.189-1.703-4.866c0.486-2.676,1.461-3.529,3.771-3.285c2.312,0.244,3.771,0.852,3.771,0.852s-2.313-3.894-2.313-5.353
			s0.731-3.771,3.529-4.987c2.797-1.218,5.474-1.704,5.474-1.704s-0.972,2.434-1.46,4.38c-0.487,1.946,0,6.205,0,6.205
			s2.189-4.625,3.528-5.841c1.338-1.216,4.622-1.823,6.448-0.851c1.824,0.973,5.109,5.109,5.109,5.109s-3.771,0.243-6.69,0.487
			c-2.921,0.243-5.84,3.771-5.84,3.771s3.772-0.731,5.596-0.243c1.825,0.487,2.92,2.311,3.163,3.893s-1.582,6.205-1.582,6.205
			s-3.04-4.257-4.622-5.231c-1.582-0.974-5.358,0.127-5.358,0.127L157.829,185.238z"/>
	</g>
	<g id="Warstwa_61_1_">
		<polygon fill="none" stroke="#4C5250" stroke-width="2" stroke-miterlimit="10" points="178.683,142.908 110.188,172.36 
			173.545,221.334 243.068,187.772 		"/>
		<polygon fill="none" stroke="#4C5250" stroke-miterlimit="10" points="128.682,174.073 177.998,152.84 225.944,186.06 
			175.259,210.376 		"/>
		<path fill="none" stroke="#4C5250" stroke-miterlimit="10" d="M164.006,201.532c0,0-3.438-5.798-4.727-10.202
			c-1.289-4.402-1.503-6.229-1.503-6.229s-2.147-1.288-4.081-0.321c-1.934,0.966-3.651,3.865-3.651,3.865s-3.545-5.478-0.752-7.625
			c2.792-2.147,7.088,0,7.088,0s-4.188-4.188-2.362-7.84c1.824-3.65,8.806-4.617,8.806-4.617s-1.826,4.188-2.148,6.766
			c-0.321,2.578,0.752,5.155,0.752,5.155s0.322-6.98,6.015-8.054c5.691-1.074,8.806,5.905,8.806,5.905s-7.196-0.858-9.665,0.86
			c-2.47,1.717-3.008,3.543-3.008,3.543s5.371-3.006,8.056,0.752s-1.183,8.699-1.183,8.699s-3.543-5.692-5.798-6.015
			s-3.652,0.752-3.652,0.752s1.289,5.047,2.9,8.27c1.61,3.222,4.188,5.477,4.188,5.477"/>
		<path fill="none" stroke="#4C5250" stroke-miterlimit="10" d="M166.367,198.311c0,0,4.402-0.859,12.136-6.014
			c7.732-5.155,10.952-6.979,12.778-7.517c1.826-0.538,0.752,0.751-1.073,2.361c-1.827,1.611-7.194,9.667,2.148,3.438
			c9.342-6.229,22.122-12.35,22.122-12.35"/>
		<ellipse fill="none" stroke="#4C5250" stroke-miterlimit="10" cx="186.879" cy="170.336" rx="7.518" ry="5.208"/>
		<line fill="none" stroke="#4C5250" stroke-miterlimit="10" x1="163.063" y1="192.884" x2="205.887" y2="172.644"/>
		<line fill="none" stroke="#4C5250" stroke-miterlimit="10" x1="156.809" y1="195.842" x2="160.328" y2="194.178"/>
	</g>
</g>
<g id="Warstwa_62_1_">
	<polygon fill="#FFAC73" points="46.495,40.288 80.948,22.343 210.866,67.563 211.226,141.854 180.719,170.206 46.136,113.143 	"/>
	<path fill="#ED6242" d="M124.117,107.573c6.424,15.449,1.089,32.356-11.915,37.761c-9.163,3.812-19.688,0.896-27.354-6.561
		c-3.214-3.127-5.926-7.054-7.823-11.617c-6.423-15.448-1.089-32.354,11.915-37.762C101.944,83.987,117.693,92.126,124.117,107.573z
		"/>
	<path fill="#FF895A" d="M116.773,110.653c4.933,11.859,1.428,24.594-7.826,28.44c-6.52,2.713-14.155,0.289-19.821-5.527
		c-2.377-2.438-4.407-5.473-5.863-8.978c-4.931-11.859-1.426-24.591,7.828-28.439C100.344,92.302,111.844,98.795,116.773,110.653z"
		/>
	<path fill="#ED6242" d="M86.69,89.456l16.509-10.049c0,0,8.971-5.025,17.944-0.718c8.973,4.307,16.51,12.202,19.739,21.893
		s0,18.304-0.718,21.894c-0.718,3.588-3.23,6.46-7.896,10.407c-4.665,3.947-13.996,8.972-13.996,8.972s11.485-9.689,8.255-25.84
		c-3.23-16.15-10.408-21.892-17.586-25.481C101.764,86.943,95.304,87.302,86.69,89.456z"/>
	<polygon fill="#566867" points="54.749,53.208 73.052,60.026 73.052,68.64 55.108,61.821 	"/>
	<polygon fill="#FF895A" points="210.866,67.563 211.226,141.854 180.719,170.206 181.796,89.096 	"/>
	<polygon fill="#FFD599" points="46.495,40.288 80.948,22.343 210.866,67.563 181.796,89.096 	"/>
	<polygon fill="#FFAC73" points="87.767,44.954 103.917,25.932 116.837,17.678 165.646,33.828 181.796,62.539 165.646,72.587 	"/>
	<polygon fill="#FFD599" points="103.917,25.932 116.837,17.678 165.646,33.828 153.084,42.44 	"/>
	<path fill="#ED6242" d="M62.286,29.521c0,0,1.077-3.588,9.332-3.588c8.254,0,11.125,3.588,11.125,3.588v8.614
		c0,0-4.307,2.871-10.049,2.871s-10.767-2.512-10.767-2.512L62.286,29.521z"/>
	<path fill="#FFAC73" d="M62.286,29.521c0-1.794,4.666-4.306,11.844-3.947c7.177,0.359,8.613,3.947,8.613,3.947
		s-2.872,4.307-9.69,4.307S62.286,29.521,62.286,29.521z"/>
	<path fill="#485454" d="M118.857,124.261c-0.07-8.239-1.42-14.773-6.107-20.384c-4.687-5.61-10.084-8.167-13.707-8.735
		c-2.119-0.333-4.668,0.064-6.426,0.451c-5.696,5.553-7.26,15.769-3.253,25.407c1.457,3.506,3.486,6.539,5.863,8.979
		c5.184,5.32,12.011,7.787,18.129,6.096C115.581,133.907,118.904,129.752,118.857,124.261z"/>
</g>
<g id="Warstwa_60_1_">
	<path fill="none" stroke="#4C5250" stroke-width="2" stroke-miterlimit="10" d="M111.767,145.478
		c2.231-0.431,22.616-11.718,26.208-18.315c4.806-8.828,5.711-19.708,1.532-29.752c-5.473-13.161-19.936-23.243-32.718-19.445
		c-6.718,1.996-22.089,13.689-22.089,13.689"/>
	<path fill="none" stroke="#4C5250" stroke-width="2" stroke-miterlimit="10" d="M124.117,107.573
		c6.424,15.449,1.089,32.356-11.915,37.761c-9.163,3.812-19.688,0.896-27.354-6.561c-3.214-3.127-5.926-7.054-7.823-11.617
		c-6.423-15.448-1.089-32.354,11.915-37.762C101.944,83.987,117.693,92.126,124.117,107.573z"/>
	<path fill="none" stroke="#4C5250" stroke-miterlimit="10" d="M116.773,110.653c4.933,11.859,1.428,24.594-7.826,28.44
		c-6.52,2.713-14.155,0.289-19.821-5.527c-2.377-2.438-4.407-5.473-5.863-8.978c-4.931-11.859-1.426-24.591,7.828-28.439
		C100.344,92.302,111.844,98.795,116.773,110.653z"/>
	<polyline fill="none" stroke="#4C5250" stroke-width="2" stroke-miterlimit="10" points="177.224,55.757 210.985,67.375 
		210.985,142.337 180.818,170.125 117.6,143.297 	"/>
	<polyline fill="none" stroke="#4C5250" stroke-width="2" stroke-miterlimit="10" points="73.875,25.966 80.787,22.572 
		100.769,29.447 	"/>
	<polyline fill="none" stroke="#4C5250" stroke-width="2" stroke-miterlimit="10" points="76.171,125.594 46.108,112.798 
		46.108,39.597 62.292,31.651 	"/>
	<polyline fill="none" stroke="#4C5250" stroke-width="2" stroke-miterlimit="10" points="46.108,39.597 181.415,89.18 
		181.415,170.125 	"/>
	<line fill="none" stroke="#4C5250" stroke-width="2" stroke-miterlimit="10" x1="181.415" y1="89.18" x2="210.985" y2="67.375"/>
	<polygon fill="none" stroke="#4C5250" stroke-width="2" stroke-miterlimit="10" points="87.626,44.675 103.755,25.559 
		116.897,17.494 165.584,33.922 181.415,62.298 166.182,72.751 	"/>
	<polyline fill="none" stroke="#4C5250" stroke-width="2" stroke-miterlimit="10" points="103.755,25.559 153.339,41.987 
		166.182,72.751 	"/>
	<line fill="none" stroke="#4C5250" stroke-width="2" stroke-miterlimit="10" x1="153.339" y1="41.987" x2="165.584" y2="33.922"/>
	<ellipse fill="none" stroke="#4C5250" stroke-width="2" stroke-miterlimit="10" cx="72.393" cy="29.89" rx="10.156" ry="4.032"/>
	<path fill="none" stroke="#4C5250" stroke-width="2" stroke-miterlimit="10" d="M82.548,37.122c0,2.227-4.546,4.032-10.156,4.032
		c-5.609,0-10.155-1.806-10.155-4.032"/>
	<line fill="none" stroke="#4C5250" stroke-width="2" stroke-miterlimit="10" x1="82.548" y1="29.89" x2="82.548" y2="37.122"/>
	<line fill="none" stroke="#4C5250" stroke-width="2" stroke-miterlimit="10" x1="62.26" y1="29.89" x2="62.26" y2="37.122"/>
	<polygon fill="none" stroke="#4C5250" stroke-miterlimit="10" points="73.17,68.752 55.23,61.774 55.23,53.327 73.17,60.306 	"/>
	<line fill="none" stroke="#4C5250" stroke-miterlimit="10" x1="134.876" y1="90.091" x2="121.016" y2="100.064"/>
	<line fill="none" stroke="#4C5250" stroke-miterlimit="10" x1="125.749" y1="81.809" x2="111.72" y2="91.612"/>
	<line fill="none" stroke="#4C5250" stroke-miterlimit="10" x1="115.269" y1="77.583" x2="100.563" y2="87.387"/>
	<line fill="none" stroke="#4C5250" stroke-miterlimit="10" x1="139.947" y1="100.571" x2="125.749" y2="110.882"/>
	<line fill="none" stroke="#4C5250" stroke-miterlimit="10" x1="141.807" y1="112.403" x2="127.44" y2="122.883"/>
	<line fill="none" stroke="#4C5250" stroke-miterlimit="10" x1="139.609" y1="122.714" x2="124.565" y2="133.701"/>
</g>
</svg>
