<?xml version="1.0" encoding="utf-8"?>
<!-- Generator: Adobe Illustrator 16.0.0, SVG Export Plug-In . SVG Version: 6.00 Build 0)  -->
<!DOCTYPE svg PUBLIC "-//W3C//DTD SVG 1.1//EN" "http://www.w3.org/Graphics/SVG/1.1/DTD/svg11.dtd">
<svg version="1.1" id="Warstwa_45" xmlns="http://www.w3.org/2000/svg" xmlns:xlink="http://www.w3.org/1999/xlink" x="0px" y="0px"
	 width="250px" height="250px" viewBox="0 0 250 250" enable-background="new 0 0 250 250" xml:space="preserve">
<g id="Warstwa_51_1_">
	<polygon fill="#EFEFEF" points="96.371,197.002 131.097,138.612 199.003,147.872 176.367,207.291 	"/>
	<polygon fill="#EFEFEF" points="197.974,151.73 200.804,151.474 195.659,214.493 109.232,212.949 112.576,199.06 176.367,207.291 	
		"/>
	<polygon fill="#CECECE" points="112.576,199.06 176.367,207.291 199.003,147.872 200.804,151.474 177.653,209.605 112.833,202.146 
			"/>
</g>
<g id="Warstwa_50_1_">
	<polygon fill="none" stroke="#4C5250" stroke-width="2" stroke-miterlimit="10" points="95.6,196.744 130.839,138.869 
		199.26,147.615 176.367,207.548 	"/>
	<polyline fill="none" stroke="#4C5250" stroke-width="2" stroke-miterlimit="10" points="113.091,199.316 109.232,212.692 
		195.916,214.75 200.804,150.959 	"/>
	<line fill="none" stroke="#4C5250" stroke-miterlimit="10" x1="114.891" y1="183.884" x2="150.646" y2="189.542"/>
	<line fill="none" stroke="#4C5250" stroke-miterlimit="10" x1="121.322" y1="175.652" x2="171.737" y2="182.854"/>
	<line fill="none" stroke="#4C5250" stroke-miterlimit="10" x1="125.18" y1="167.164" x2="174.824" y2="174.623"/>
	<line fill="none" stroke="#4C5250" stroke-miterlimit="10" x1="129.296" y1="158.933" x2="177.91" y2="166.393"/>
	<line fill="none" stroke="#4C5250" stroke-miterlimit="10" x1="133.411" y1="150.702" x2="182.026" y2="158.161"/>
</g>
<g id="Warstwa_49_1_">
	<polygon fill="#BBE1E6" points="72.042,57.795 78.726,54.613 176.271,36.791 194.73,106.966 243.264,135.768 243.423,143.564 
		150.652,177.777 91.774,140.86 91.934,133.222 	"/>
	<polygon fill="#99D2DA" points="71.935,58.616 78.726,54.613 98.687,135.269 150.902,167.936 150.652,177.777 91.774,140.86 
		91.934,133.222 	"/>
	<polygon fill="#99D2DA" points="150.902,167.936 243.264,135.768 243.423,143.564 150.652,177.777 	"/>
	<polygon fill="#37A8BA" points="87.883,60.931 170.708,44.726 185.37,102.087 103.316,124.465 	"/>
	<polygon fill="#99D2DA" points="116.692,137.583 193.087,114.176 215.979,128.066 142.671,152.502 	"/>
	<path fill="#99D2DA" d="M173.374,147.043c-0.278-0.592,1.125-1.09,3.015-1.707c1.889-0.616,18.815-6.465,18.815-6.465
		s0.943-0.472,1.852-0.146c0.908,0.327,8.064,5.049,8.064,5.049s1.343,0.835-0.109,1.525c-1.453,0.69-21.576,7.265-21.576,7.265
		s-0.8,0.254-1.635,0s-1.488-0.69-1.488-0.69S173.664,147.66,173.374,147.043z"/>
</g>
<g id="Warstwa_48_1_">
	<polygon fill="none" stroke="#4C5250" stroke-width="2" stroke-miterlimit="10" points="71.849,57.931 78.022,54.5 175.768,36.667 
		194.63,106.974 243.33,135.783 242.988,143.671 150.73,177.281 92.084,140.585 91.741,133.383 	"/>
	<polyline fill="none" stroke="#4C5250" stroke-width="2" stroke-miterlimit="10" points="78.022,54.5 98.601,135.783 
		150.388,168.021 243.33,135.783 	"/>
	<line fill="none" stroke="#4C5250" stroke-width="2" stroke-miterlimit="10" x1="98.601" y1="135.783" x2="194.63" y2="106.974"/>
	<polygon fill="none" stroke="#4C5250" stroke-width="2" stroke-miterlimit="10" points="87.626,60.674 170.623,44.897 
		185.37,102.173 103.402,124.808 	"/>
	<polygon fill="none" stroke="#4C5250" stroke-miterlimit="10" points="116.091,137.498 192.915,114.176 216.236,127.895 
		142.499,152.588 	"/>
	<path fill="none" stroke="#4C5250" stroke-miterlimit="10" d="M173.536,147.509c-1.05-1.342,1.05-1.692,3.092-2.333
		c2.041-0.642,17.328-5.96,17.328-5.96s2.042-0.815,3.033-0.582c0.992,0.232,8.107,5.079,8.107,5.079s1.225,1.107-0.7,1.865
		c-1.461,0.575-20.707,6.826-20.707,6.826s-1.459,0.699-2.976-0.352C179.073,150.917,173.536,147.509,173.536,147.509z"/>
	<line fill="none" stroke="#4C5250" stroke-miterlimit="10" x1="139.328" y1="67.49" x2="123.72" y2="94.722"/>
	<line fill="none" stroke="#4C5250" stroke-miterlimit="10" x1="138.498" y1="77.62" x2="129.532" y2="92.73"/>
	<line fill="none" stroke="#4C5250" stroke-miterlimit="10" x1="136.008" y1="142.211" x2="197.112" y2="122.12"/>
	<line fill="none" stroke="#4C5250" stroke-miterlimit="10" x1="145.14" y1="132.249" x2="162.076" y2="141.547"/>
	<line fill="none" stroke="#4C5250" stroke-miterlimit="10" x1="163.57" y1="128.762" x2="176.356" y2="136.067"/>
	<line fill="none" stroke="#4C5250" stroke-miterlimit="10" x1="150.388" y1="168.021" x2="150.73" y2="177.281"/>
	<line fill="none" stroke="#4C5250" stroke-miterlimit="10" x1="91.934" y1="133.699" x2="98.617" y2="136.245"/>
</g>
<g id="Warstwa_47_1_">
	<path fill="#A8BA95" d="M127.067,171.794l-8.918-4.802l-0.686-6.858l8.917-3.431l-51.101-9.603c0,0-41.499,6.516-47.329,8.574
		c-5.83,2.058-9.603,6.173-8.574,10.288c1.029,4.116,1.715,5.487,10.289,10.289s33.268,18.521,33.268,18.521L127.067,171.794z"/>
	<polygon fill="#EFEFEF" points="117.463,160.134 117.463,170.079 62.247,187.913 24.864,168.364 24.178,163.221 32.066,162.191 
		62.933,176.938 	"/>
	<path fill="#F4D390" d="M117.807,121.036l11.318,15.776l-6.173,0.687v6.516l7.887,11.661l-106.661,7.546l-15.091-34.64
		c0,0-0.686-6.173-0.686-11.661c0-5.488,2.058-8.232,2.058-8.232l95.687-2.058L117.807,121.036z"/>
	<path fill="#EFEFEF" d="M122.952,137.498v11.66l-97.402,5.831L12.86,127.552c0,0-1.029-3.429-0.686-6.516
		c0.343-3.086,0.686-5.488,0.686-5.488l13.376,25.38L122.952,137.498z"/>
	<path fill="#FF895A" d="M19.376,102.173l45.958-15.434l64.82,12.347c0,0,4.801,3.43,4.801,6.859c0,3.429-1.028,8.916-6.173,10.631
		s-40.813,17.834-40.813,17.834l-70.993-18.177l9.603-3.429l0.343-8.574L19.376,102.173z"/>
	<path fill="#EFEFEF" d="M126.38,101.83c0,0,1.716,2.4,1.716,5.145s-1.372,4.802-3.43,5.831
		c-2.058,1.029-38.412,14.747-38.412,14.747l-59.676-14.747l0.343-8.574l59.675,11.661L126.38,101.83z"/>
</g>
<g id="Warstwa_46_1_">
	<path fill="none" stroke="#4C5250" stroke-width="2" stroke-miterlimit="10" d="M17.471,102.254c0,0,46.373-14.548,47.965-14.775
		c1.591-0.228,60.467,11.139,63.877,11.82c3.41,0.682,7.274,5.229,5.456,10.23c-1.818,5-3.864,6.365-13.867,10.229
		c-10.002,3.864-33.416,14.776-33.416,14.776l-71.153-18.187l10.457-3.409l-0.228-9.093L17.471,102.254z"/>
	<path fill="none" stroke="#4C5250" stroke-width="2" stroke-miterlimit="10" d="M26.563,103.846l60.241,12.502l35.008-13.412
		c0,0,4.32-1.819,7.729-2.046c3.41-0.227,3.41,0.802,3.41,0.802"/>
	<path fill="none" stroke="#4C5250" stroke-width="2" stroke-miterlimit="10" d="M26.791,112.939l59.332,14.548l37.962-14.548
		c0,0,4.093-1.592,4.093-5.684s-1.819-5.911-1.819-5.911"/>
	<line fill="none" stroke="#4C5250" stroke-miterlimit="10" x1="86.35" y1="116.576" x2="86.123" y2="127.487"/>
	<path fill="none" stroke="#4C5250" stroke-width="2" stroke-miterlimit="10" d="M26.109,108.165l-15.458,0.682
		c0,0-2.046,1.138-2.273,8.184s0.909,12.275,0.909,12.275l14.549,33.645l107.523-6.819l-8.411-13.641l0.228-5.228h6.591
		l-11.82-15.458"/>
	<polyline fill="none" stroke="#4C5250" stroke-width="2" stroke-miterlimit="10" points="123.177,137.263 25.882,140.899 
		10.651,109.529 	"/>
	<path fill="none" stroke="#4C5250" stroke-width="2" stroke-miterlimit="10" d="M122.949,142.49v7.275l-97.402,5.348
		l-12.396-27.626c0,0-0.909-4.545-0.682-7.729s1.136-5.002,1.136-5.002"/>
	<line fill="none" stroke="#4C5250" stroke-miterlimit="10" x1="25.882" y1="140.899" x2="25.882" y2="155.113"/>
	<polyline fill="none" stroke="#4C5250" stroke-width="2" stroke-miterlimit="10" points="128.859,156.131 62.936,177.271 
		32.02,162.268 	"/>
	<path fill="none" stroke="#4C5250" stroke-width="2" stroke-miterlimit="10" d="M21.335,158.403c0,0-2.273,3.639-2.046,6.82
		c0.227,3.183,2.273,6.364,2.273,6.364l41.6,23.188l65.015-22.732l-10.23-4.773l-0.228-7.048"/>
	<path fill="none" stroke="#4C5250" stroke-width="2" stroke-miterlimit="10" d="M117.948,167.27l-0.228,2.728l-55.239,17.959
		l-37.508-20.005c0,0-0.455-1.364-0.682-3.41c-0.227-2.045-0.227-2.045-0.227-2.045"/>
	<line fill="none" stroke="#4C5250" stroke-miterlimit="10" x1="62.936" y1="177.271" x2="62.481" y2="187.956"/>
</g>
</svg>
