<?xml version="1.0" encoding="utf-8"?>
<!-- Generator: Adobe Illustrator 16.0.0, SVG Export Plug-In . SVG Version: 6.00 Build 0)  -->
<!DOCTYPE svg PUBLIC "-//W3C//DTD SVG 1.1//EN" "http://www.w3.org/Graphics/SVG/1.1/DTD/svg11.dtd">
<svg version="1.1" id="Warstwa_72" xmlns="http://www.w3.org/2000/svg" xmlns:xlink="http://www.w3.org/1999/xlink" x="0px" y="0px"
	 width="250px" height="250px" viewBox="0 0 250 250" enable-background="new 0 0 250 250" xml:space="preserve">
<g id="Warstwa_78">
	<ellipse fill="#E5E5E5" cx="117.519" cy="225.234" rx="68.481" ry="15.766"/>
</g>
<g id="Warstwa_76">
	<path fill="#37A8BA" d="M116.73,119.839c0,0,10.322,0.13,19.466-1.045s13.064-1.698,13.064-1.698s1.959,13.327,3.266,26.521
		s3.658,23.777,3.658,23.777l-1.176,3.919c0,0,0.915,8.228,3.005,20.508s3.919,21.164,3.919,21.164l-14.37,8.361
		c0,0-2.613-8.231-4.442-24.953s-2.482-24.169-2.482-24.169l-5.095-13.064c0,0-0.392,9.407-0.392,12.15s0.13,4.573-0.784,6.532
		s-0.914,1.959-0.914,1.959s1.176,20.772,1.698,27.958s1.176,12.411,1.176,12.411s-3.136,1.568-7.577,1.96
		c-4.442,0.392-9.538,0.131-9.538,0.131s-0.784-16.07-0.915-27.697s1.176-21.556,1.176-21.556s-2.612-20.771-3.396-30.048
		s-0.784-14.233-0.784-14.233S115.162,119.842,116.73,119.839z"/>
	<path fill="#79A57D" d="M99.093,57.659c0,0,1.568-0.917,4.703,0.912s4.834,7.711,4.834,7.711s3.789,10.579,6.01,20.247
		s2.874,13.587,2.482,18.029s-1.829,24.169-1.829,24.169s-10.32-1.438-14.632-4.965s-10.583-8.491-10.19-15.154
		s1.045-17.637,1.045-24.561s-0.261-9.146-0.261-9.146l-4.312-1.176c0,0,1.829-9.275,3.658-12.28s4.964-4.703,4.964-4.703
		S97.264,57.917,99.093,57.659z"/>
	<path fill="#A8BA95" d="M101.445,57.133c0,0,3.527,1.959,4.703,4.181s2.613,5.487,2.613,5.487s1.306-3.919,4.442-5.095
		s6.271-2.483,8.623-3.397s3.596-2.102,3.596-2.102l-1.585-6.196c0,0-6.452,1.504-11.286,3.072S101.445,57.133,101.445,57.133z"/>
	<path fill="#F4EAE4" d="M147.301,20.556c0,0,2.744,7.708,2.613,15.416s1.175,10.843-3.267,12.411s-6.01,2.09-6.532,3.397
		s-0.654,2.09-0.131,3.789s1.307,2.352,1.307,2.352s-2.613,4.573-6.662,4.181c-4.051-0.392-9.496-5.461-9.496-5.461
		s-0.108-3.268-1.153-5.62s-2.449-4.178-2.449-4.178l1.601-2.9c0,0-5.487-3.005-4.442-6.141s1.567-4.703,3.135-4.442
		s5.487,3.789,5.487,3.789s-1.307-4.965-1.307-7.969s0.131-5.226,2.221-5.487c2.091-0.261,8.1-0.131,11.758-0.915
		S147.301,20.556,147.301,20.556z"/>
	<path fill="#4C5250" d="M126.92,33.355l5.096-1.437c0,0-1.437-3.267,3.136-3.658s6.924-0.522,9.798-1.437s3.919-0.915,3.919-0.915
		l0.784,7.447c0,0-1.307,0.784-3.005,0.261s-3.527-3.789-3.527-3.789l-1.829,0.131c0,0-0.521,4.833-3.135,5.356
		s-4.051,1.176-4.965,0.131s-1.176-1.829-1.176-1.829l-4.703,1.307L126.92,33.355z"/>
	<path fill="#566867" d="M121.963,46.986c0,0-5.754-4.807-7.061-9.51s-1.831-12.085,0.391-16.919s8.491-7.945,13.586-8.729
		c5.096-0.784,7.257-0.05,11.96,0.865s8.934,3.17,8.683,3.422c-1.835,1.846-2.612,4.964-6.924,6.14s-10.19,0.915-12.542,1.307
		s-3.657,1.567-4.05,3.658c-0.392,2.09,1.307,9.406,1.307,9.406s-3.92-3.658-5.487-3.266s-3.266,2.482-3.135,4.442
		s0.915,3.135,2.09,4.181s2.352,1.96,2.352,1.96L121.963,46.986z"/>
	<path fill="#CEBDB7" d="M128.735,48.138c0,0,4.753,1.126,8.934,0.865s7.349-0.576,7.349-0.576l-4.641,2.7
		c0,0-0.393,1.83-0.393,3.136s1.307,3.658,1.307,3.658s-6.793-1.045-9.014-3.396C130.056,52.172,128.735,48.138,128.735,48.138z"/>
	<path fill="#CEBDB7" d="M141.291,37.932c0,0,1.045,0.392,2.221,0.13s1.568-0.915,1.568-0.915s-0.131,2.874-1.307,3.266
		S141.422,39.107,141.291,37.932z"/>
	<path fill="#F4EAE4" d="M182.183,89.664c0,0,4.051-2.352,5.618-3.658s1.436-1.437,5.486-1.176s7.055,0.261,7.186,1.437
		s1.96,0.392,3.267,0.653s2.819,1.424,2.95,2.861s-2.45,2.738-2.45,2.738s-2.178,2.651-3.746,4.611s-3.426,4.179-5.908,4.179
		s-4.172-0.018-7.046-0.018s-5.226,0.392-5.226,0.392s0.652-2.482,0.392-6.14S182.183,89.664,182.183,89.664z"/>
	<path fill="#F4EAE4" d="M124.569,121.933l0.784,1.307l-3.658,10.19c0,0-2.221-1.307-3.266-2.482s-2.352-2.874-2.352-2.874
		L124.569,121.933z"/>
	<path fill="#CEBDB7" d="M191.458,87.835c0,0,0.001,1.568-1.828,3.005s-3.136,4.18-3.136,4.18l3.136,3.005
		c0,0,1.305,1.307,3.004,1.568s2.744,0.392,2.744,0.392s0-3.527,0.653-6.271s0.914-4.442,0.914-4.442S192.895,88.75,191.458,87.835z
		"/>
	<path fill="#ED6242" d="M182.183,89.664c0,0-5.226,1.045-10.06,1.438s-9.275-0.915-9.275-0.915s-2.744-5.356-4.965-11.366
		s-5.095-14.371-6.01-16.984s-3.657-2.613-5.748-2.874s-4.441-1.307-4.441-1.307s-0.784,1.307-2.222,2.352s-3.005,1.829-7.315,1.307
		c-4.312-0.522-8.231-4.442-8.231-4.442s-0.915,1.045-3.527,2.09s-5.879,1.698-8.1,3.004s-5.748,9.929-9.014,17.376
		s-6.14,16.461-6.793,20.119s2.874,7.447,7.708,14.24s11.366,14.501,11.366,14.501l9.015-6.271l-1.698-2.481
		c0,0,4.964,0,11.497-0.392s16.983-2.613,16.983-2.613l0.393-18.551c0,0,6.271,5.487,7.708,6.924s6.793,0.13,13.194-1.307
		s9.929-2.482,9.929-2.482s0.262-2.874,0.262-6.14S182.183,89.664,182.183,89.664z M116.469,110.306c0,0-2.352-3.789-4.181-6.14
		s-2.482-3.658-2.482-3.658s3.396-12.542,5.226-14.763c0,0,0,5.487,1.045,9.015s1.829,6.793,1.829,6.793L116.469,110.306z"/>
	<path fill="#A8BA95" d="M119.474,59.75c0,0,2.744,9.014,3.397,11.758s0.392,6.532-1.568,10.06s-5.356,8.492-5.356,8.492
		l-0.915-6.532c0,0,2.744-3.658,1.96-8.23s-3.789-12.934-3.789-12.934L119.474,59.75z"/>
	<path fill="#A8BA95" d="M146.647,59.227c0,0,3.267,0.131,4.442,1.829s1.176,3.658,1.176,3.658s1.176,5.749,1.176,8.753
		s-1.829,8.361-1.829,8.361S149.783,64.061,146.647,59.227z"/>
	<path fill="#37A8BA" d="M114.326,34.162c0,0-8.7,2.333-12.228,2.464s-8.623,0.653-9.798,5.356s-1.045,7.577,0.784,10.843
		s4.573,5.487,6.924,5.226s7.447-3.135,11.366-4.442s12.318-3.454,12.318-3.454s-1.16-2.953-4.035-5.043
		S114.587,36.644,114.326,34.162z"/>
	<path fill="#2C8791" d="M94.913,38.847c0,0,5.878-3.396,8.492,0.261s3.266,5.487,2.482,10.452s-3.396,7.708-3.396,7.708
		s-4.051,2.09-7.055-1.829S92.3,47.6,92.561,44.072S94.913,38.847,94.913,38.847z"/>
	<path fill="#99D2DA" d="M191.851,84.833l1.959-9.406l7.97,2.09l-0.262,2.352l5.096,2.743l-4.703,8.231l-4.965-0.392v-1.178
		c0,0,1.828,0.002,2.874-1.173s1.698-2.221-0.392-2.613S191.851,84.833,191.851,84.833z"/>
	<path fill="#99D2DA" d="M192.634,88.621c0,0,0.915,1.96,0.393,3.397s-2.352,2.613-2.352,2.613l-0.262,3.396l4.965,0.784
		c0,0,0.262-2.618,0.653-5.098s1.045-4.047,1.045-4.047S192.895,89.274,192.634,88.621z"/>
	<path fill="#37A8BA" d="M190.282,97.113l1.568,0.784l3.527,0.915c0,0,0.393-4.05,0.653-5.618s0.914-3.922,0.914-3.922
		s-1.96,0.002-3.005-0.259s-1.045-0.261-1.045-0.261s0.915,3.527-0.522,4.442s-1.698,1.437-1.698,1.437L190.282,97.113z"/>
	<polygon fill="#37A8BA" points="194.071,75.949 201.779,77.517 201.518,79.868 206.613,82.611 205.176,85.094 200.212,82.612 
		200.734,80.913 193.026,78.692 	"/>
	<path fill="#A8BA95" d="M124.308,57.397c0,0,9.405,14.631,15.677,25.867s11.366,22.209,11.366,22.209l-0.261,6.01
		c0,0-4.965-7.055-8.492-13.326s-9.145-15.808-13.587-23.646c-4.442-7.838-8.753-14.763-8.753-14.763L124.308,57.397z"/>
	<path fill="#566867" d="M136.054,220.018c0,0,1.453,2.629,3.735,4.911s4.565,3.943,4.15,5.257s-3.182,2.629-7.539,2.006
		s-10.375-1.938-13.003-4.22s-3.804-5.533-3.804-5.533s5.879,0.277,9.683-0.276C133.08,221.608,136.054,220.018,136.054,220.018z"/>
	<path fill="#566867" d="M147.328,220.986c0,0,6.018-2.905,9.545-4.911s5.118-3.319,5.118-3.319s3.665,3.182,7.055,5.118
		s8.022,4.08,7.055,5.049s-6.502,3.597-11.896,2.905S148.712,223.753,147.328,220.986z"/>
	<path fill="#79A57D" d="M151.5,108.25c0,0,6.25-2.5,6.5,3.25s0.75,14.5,0.5,19.75s-0.25,7-2.5,8s-3.75,0.5-3.75,0.5
		s-1.75-8.25-2-13s-0.989-9.655-0.989-9.655l2.09-0.649L151.5,108.25z"/>
	<path fill="#2C8791" d="M121.695,133.43c0,0-1.195,6.32-3.445,5.57s-2-2.75-2-2.75l-0.696-8.046
		C115.554,128.204,120.89,132.859,121.695,133.43z"/>
	<path fill="#2C8791" d="M140,138c0,0,1.25,7.5-0.25,11.75S138.5,164,138.5,164l-3-6.5v-16.25L140,138z"/>
	<path fill="#2C8791" d="M135,172.75c0,0-6.75,5.25-7.5,7.75s2.25,9.75,3.25,10.25s2.5-5,2.5-5l0.203-5.949
		C133.453,179.801,135.25,177,135,172.75z"/>
	<path fill="#2C8791" d="M155,164.75c0,0-0.75,3.25-3,5S150.25,182,152.25,182s3-3.25,3-3.25s-0.75-7,0-8.75S155,164.75,155,164.75z
		"/>
	<path fill="#C14F3D" d="M152,83.5c0,0,1,10.75,4,14.75s5.25,6.75,5.25,6.75s-4.75-2.75-6.75-4.5s-2.757-2.605-2.757-2.605L152,83.5
		z"/>
	<polygon fill="#566867" points="119.5,116.5 121.5,118.5 113,125.5 110.25,122.75 	"/>
	<circle fill="#FFECC7" cx="116.25" cy="121" r="2.75"/>
</g>
<g id="Warstwa_75">
	<path fill="none" stroke="#4C5250" stroke-width="2" stroke-miterlimit="10" d="M122.107,47.13c0,0-7.232-5.188-7.925-12.536
		s-0.114-13.57,4.323-17.868s11.774-5.73,18.012-4.899s14.12,3.603,12.104,5.908c-0.816,0.933-2.45,2.45-2.45,2.45
		s1.757,3.111,2.45,8.934s1.344,17.268-1.009,18.444c-2.306,1.153-6.772,2.306-6.772,2.306s-1.338,2.8-0.922,4.879
		s1.386,2.772,1.386,2.772s4.99,1.664,7.486,1.941s4.438,5.961,5.962,11.368s8.179,19.686,8.179,19.686s5.546,1.109,11.784,0.139
		s6.63-0.605,9.818-2.407s2.848-1.635,4.289-2.355c1.741-0.871,3.059-1.388,3.059-1.388l1.663-9.289l8.18,2.218l-0.555,2.634
		l5.13,2.634l-2.08,4.298c0,0,2.316,0.431,2.039,2.927s-3.026,2.882-3.026,2.882s0,0-2.449,3.89
		c-2.146,3.41-3.206,4.344-5.188,4.467c-2.09,0.13-4.322,0-4.322,0s-2.442,0.116-4.521,0.116s-3.548-0.836-3.548-0.836
		s-2.551,0.508-10.375,2.594c-7.488,1.996-11.284,3.281-13.225,1.618s-7.902-7.625-7.902-7.625l-0.276,12.061l-0.139,7.351
		l-1.664,0.553c0,0,0.001,5.409,1.803,18.856s1.803,15.941,2.772,22.041s2.355,10.26,1.108,11.646s1.109,11.646,1.803,18.161
		s4.991,25.093,4.991,25.093s6.377,4.852,9.288,6.238s4.714,2.356,4.714,3.882s-8.18,3.881-15.943,2.634s-12.893-4.436-12.893-4.436
		s-3.188-13.032-4.298-26.618s-1.941-21.627-1.941-21.627l-5.545-15.527c0,0-0.139,15.526-0.139,17.606s-2.08,4.714-2.08,4.714
		s1.248,18.162,1.803,26.618s1.525,13.863,1.525,13.863s2.494,4.297,4.99,6.377s4.715,4.852-1.663,5.684s-12.339-1.387-15.805-3.743
		s-4.575-6.1-4.575-6.1s-1.941-16.221-1.248-30.639s1.248-18.3,1.248-18.3s-1.803-12.198-2.773-22.873s-0.97-22.182-0.97-22.182
		s-4.159-3.742-10.121-12.338c-5.961-8.596-9.982-13.309-9.566-16.082s4.991-15.251,7.764-22.183s5.961-13.725,8.041-15.389
		s4.852-1.664,8.318-3.188s5.046-2.978,5.046-2.978S125.019,50.593,122.107,47.13z"/>
	<path fill="none" stroke="#4C5250" stroke-width="2" stroke-miterlimit="10" d="M115.101,84.972c0,0,0.138,5.129,0.97,9.15
		s1.525,7.902,1.525,7.902l-0.971,8.595l-6.516-10.259C110.11,100.36,113.16,89.408,115.101,84.972z"/>
	<path fill="none" stroke="#4C5250" stroke-width="2" stroke-miterlimit="10" d="M146.026,20.473c0,0-1.873,1.153-6.248,2.251
		c-4.188,1.052-12.339,0.416-13.032,1.802s-0.832,5.545-0.416,7.348c0.416,1.802,1.109,5.268,1.109,5.268s-4.575-5.407-6.793-3.328
		s-1.25,4.994,0.02,6.687c1.248,1.664,2.882,2.738,2.882,2.738l-1.585,3.458"/>
	<polyline fill="none" stroke="#4C5250" stroke-width="2" stroke-miterlimit="10" points="116.73,110.564 124.177,121.538 
		115.794,128.365 	"/>
	<path fill="none" stroke="#4C5250" stroke-width="2" stroke-miterlimit="10" d="M151.285,116.443c0,0-6.467,1.699-14.828,2.613
		s-13.586,0.261-13.586,0.261"/>
	<path fill="none" stroke="#4C5250" stroke-width="2" stroke-miterlimit="10" d="M124.7,57.131c0,0,7.054,6.01,11.366,4.834
		s5.226-3.919,5.226-3.919"/>
	<path fill="none" stroke="#4C5250" stroke-width="2" stroke-miterlimit="10" d="M151.7,97.031c0,0,0.173-15.078-1.003-23.178
		s-4.181-14.632-4.181-14.632"/>
	<path fill="none" stroke="#4C5250" stroke-miterlimit="10" d="M112.941,62.095c0,0,3.397,7.708,4.05,11.627
		s-1.438,8.753-1.438,8.753"/>
	<path fill="none" stroke="#4C5250" stroke-miterlimit="10" d="M119.474,59.875c0,0,2.091,7.055,3.136,10.843
		s0.522,6.663-1.568,11.235s-5.356,8.623-5.356,8.623"/>
	<path fill="none" stroke="#4C5250" stroke-miterlimit="10" d="M151.351,61.965c0,0,2.222,9.406,1.96,13.325
		s-1.829,7.447-1.829,7.447"/>
	<path fill="none" stroke="#4C5250" stroke-miterlimit="10" d="M134.105,42.891c0,0,5.096,1.438,8.623,0.653s4.572-1.96,4.572-1.96"
		/>
	<path fill="none" stroke="#4C5250" stroke-miterlimit="10" d="M135.543,41.584c0,0-1.307,0-1.96,1.568s-0.653,1.568-0.653,1.568"/>
	<path fill="none" stroke="#4C5250" stroke-miterlimit="10" d="M123.916,57.653c0,0,12.411,18.682,18.42,29.787
		s9.015,18.421,9.015,18.421"/>
	<path fill="none" stroke="#4C5250" stroke-miterlimit="10" d="M120.258,59.875c0,0,11.365,18.812,18.028,30.57
		s12.934,21.556,12.934,21.556"/>
	<path fill="none" stroke="#4C5250" stroke-miterlimit="10" d="M182.183,89.4c0,0,0.522,4.572,0.653,7.316s-0.522,4.703-0.522,4.703
		"/>
	<path fill="none" stroke="#4C5250" stroke-miterlimit="10" d="M192.111,84.958c0,0,3.92,0.131,6.141,0.261s3.527,1.045,2.352,2.09
		s-1.829,2.352-4.312,2.09s-3.919-0.915-3.919-0.915s1.699,4.05-0.392,5.226s-3.136,1.176-3.136,1.176"/>
	<line fill="none" stroke="#4C5250" stroke-miterlimit="10" x1="200.734" y1="79.863" x2="199.428" y2="85.611"/>
	<path fill="none" stroke="#4C5250" stroke-miterlimit="10" d="M196.945,89.661c0,0-0.915,2.874-1.176,5.226
		s-0.392,6.271-0.392,6.271"/>
	<line fill="none" stroke="#4C5250" stroke-miterlimit="10" x1="203.478" y1="87.31" x2="201.648" y2="91.49"/>
	<path fill="none" stroke="#4C5250" stroke-miterlimit="10" d="M204.393,92.144c0,0-3.397-1.307-5.096-1.438
		s-2.482-0.261-2.482-0.261"/>
	<line fill="none" stroke="#4C5250" stroke-miterlimit="10" x1="201.357" y1="95.401" x2="196.292" y2="93.842"/>
	<line fill="none" stroke="#4C5250" stroke-miterlimit="10" x1="199.196" y1="98.859" x2="195.509" y2="97.238"/>
	<polyline fill="none" stroke="#4C5250" stroke-miterlimit="10" points="190.544,94.625 190.021,97.63 195.378,98.675 	"/>
	<line fill="none" stroke="#4C5250" stroke-miterlimit="10" x1="193.418" y1="78.687" x2="200.734" y2="80.908"/>
	<line fill="none" stroke="#4C5250" stroke-miterlimit="10" x1="200.212" y1="82.606" x2="205.176" y2="85.35"/>
	<ellipse fill="none" stroke="#4C5250" stroke-miterlimit="10" cx="116.273" cy="120.623" rx="2.809" ry="2.743"/>
	<line fill="none" stroke="#4C5250" stroke-miterlimit="10" x1="113.333" y1="121.275" x2="110.851" y2="122.843"/>
	<line fill="none" stroke="#4C5250" stroke-miterlimit="10" x1="113.333" y1="124.803" x2="115.163" y2="123.496"/>
	<line fill="none" stroke="#4C5250" stroke-miterlimit="10" x1="117.775" y1="118.271" x2="119.996" y2="116.311"/>
	<line fill="none" stroke="#4C5250" stroke-miterlimit="10" x1="119.082" y1="120.623" x2="121.564" y2="118.793"/>
	<path fill="none" stroke="#4C5250" stroke-width="2" stroke-miterlimit="10" d="M114.47,34.306c0,0-5.71,1.924-12.242,2.054
		s-9.798,2.09-10.321,9.014s4.05,11.497,4.05,11.497s-4.442,0.784-6.663,8.1s-2.09,8.884-2.09,8.884l3.919,0.915
		c0,0,0.915,14.501,0.261,23.777s-2.874,11.104,3.005,18.682s9.798,8.753,13.456,9.798s7.447,1.567,7.447,1.567"/>
	<path fill="none" stroke="#4C5250" stroke-miterlimit="10" d="M96.48,56.871c0,0,1.568,1.959,6.01,0.261s8.622-3.788,13.064-4.833
		s8.282-1.999,8.282-1.999"/>
	<path fill="none" stroke="#4C5250" stroke-miterlimit="10" d="M98.179,45.896c0,0,2.482,0.262,2.613,2.221
		s-1.437,5.487-3.789,3.135s-2.041-8.361,0.522-10.321c2.221-1.698,4.831-1.872,6.141,3.136c2.221,8.492-3.136,13.456-3.136,13.456"
		/>
	<path fill="none" stroke="#4C5250" stroke-miterlimit="10" d="M108.761,66.669c0,0-1.437-5.095-3.789-7.055
		s-3.789-2.352-3.789-2.352"/>
	<path fill="none" stroke="#4C5250" stroke-miterlimit="10" d="M95.958,57.394c0,0-3.004,4.703-3.527,8.753
		s-0.784,8.884-0.784,8.884"/>
	<line fill="none" stroke="#4C5250" stroke-miterlimit="10" x1="124.177" y1="121.538" x2="125.353" y2="123.629"/>
	<path fill="none" stroke="#4C5250" stroke-miterlimit="10" d="M125.745,121.8c0,0-1.176,4.573-2.744,8.361
		s-2.221,5.356-2.221,5.356"/>
	<path fill="none" stroke="#4C5250" stroke-miterlimit="10" d="M116.6,128.07c0,0,0.262,1.699,2.482,3.397s2.221,1.698,2.221,1.698"
		/>
	<path fill="none" stroke="#4C5250" stroke-width="2" stroke-miterlimit="10" d="M151.612,108.213c0,0,5.748-0.653,6.271,2.09
		s1.176,13.327,0.784,19.989s-0.261,8.883-2.874,9.014s-3.658,0.131-3.658,0.131"/>
	<polyline fill="none" stroke="#4C5250" stroke-width="2" stroke-miterlimit="10" points="135.543,158.119 135.674,141.396 
		139.854,137.085 	"/>
	<path fill="none" stroke="#4C5250" stroke-miterlimit="10" d="M162.099,212.793c0,0-6.307,3.85-9.572,5.548
		s-5.262,2.771-5.262,2.771"/>
	<path fill="none" stroke="#4C5250" stroke-miterlimit="10" d="M136.196,220.17c0,0-3.005,1.699-7.446,1.96
		c-4.442,0.261-9.212,0.229-9.212,0.229"/>
</g>
<g id="Warstwa_77">
	<path fill="#485454" d="M86.208,226.785c0,0,1.365-1.56,3.51-1.755s3.721,1.434,3.518,3.154s0.96,1.521-1.279,3.109
		s-2.239,1.588-2.239,1.588S89.913,227.175,86.208,226.785z"/>
	
		<ellipse fill="#566867" stroke="#4C5250" stroke-width="2" stroke-miterlimit="10" cx="85.559" cy="230.848" rx="3.775" ry="4.152"/>
	<path fill="none" stroke="#4C5250" stroke-width="2" stroke-miterlimit="10" d="M83.375,227.497
		c1.873-1.717,4.26-3.381,6.345-3.381s3.515,1.775,3.515,4.068c0,0,0.178,1.966-1.279,3.109s-4.993,3.38-4.993,3.38"/>
	<path fill="#485454" d="M100.208,219.785c0,0,1.365-1.56,3.51-1.755s3.721,1.434,3.518,3.154s0.96,1.521-1.279,3.109
		s-2.239,1.588-2.239,1.588S103.913,220.175,100.208,219.785z"/>
	
		<ellipse fill="#566867" stroke="#4C5250" stroke-width="2" stroke-miterlimit="10" cx="99.559" cy="223.848" rx="3.775" ry="4.152"/>
	<path fill="none" stroke="#4C5250" stroke-width="2" stroke-miterlimit="10" d="M97.375,220.497
		c1.873-1.717,4.26-3.381,6.345-3.381s3.515,1.775,3.515,4.068c0,0,0.178,1.966-1.279,3.109s-4.993,3.38-4.993,3.38"/>
	<path fill="#485454" d="M60.208,220.785c0,0,1.365-1.56,3.51-1.755s3.721,1.434,3.518,3.154s0.96,1.521-1.279,3.109
		s-2.239,1.588-2.239,1.588S63.913,221.175,60.208,220.785z"/>
	
		<ellipse fill="#566867" stroke="#4C5250" stroke-width="2" stroke-miterlimit="10" cx="59.559" cy="224.848" rx="3.775" ry="4.152"/>
	<path fill="none" stroke="#4C5250" stroke-width="2" stroke-miterlimit="10" d="M57.375,221.497
		c1.873-1.717,4.26-3.381,6.345-3.381s3.515,1.775,3.515,4.068c0,0,0.178,1.966-1.279,3.109s-4.993,3.38-4.993,3.38"/>
	<path fill="#ED6242" d="M83.723,149.926l0.78-16.186c0,0,0.39,0.39,2.34,1.365s1.95,0.976,1.95,0.976l-0.195,14.82L83.723,149.926z
		"/>
	<path fill="#ED6242" d="M100.723,151.926l-0.22-14.186c0,0,1.355-1.489,3.34-1.635c2.175-0.159,1.95-0.024,1.95-0.024l-0.195,16.82
		L100.723,151.926z"/>
	<path fill="#FF895A" d="M84.308,131.595c1.17-1.755,5.46-2.34,9.945-1.56s9.945,1.755,10.92,3.51s-2.145,3.511-6.825,3.511
		S81.967,135.104,84.308,131.595z"/>
	<path fill="#F4D390" d="M54.25,158c3.677-3.846,20-9.25,21.75-9.25s31.75,4,32.75,4.75s0.75,66.5,0,66.5s-13.5,8-15.75,8.25
		S56,221,55,220S51.157,161.235,54.25,158z"/>
	<path fill="#FFECC7" d="M55.837,156.362c0,0,7.605-3.314,13.845-5.85s7.215-1.563,14.041-0.587s25.545,3.706,24.375,4.097
		s-9.555,4.68-12.285,5.655s-2.925,1.755-4.095,2.73s-6.24-0.001-19.5-2.146S53.692,157.533,55.837,156.362z"/>
	<path fill="#FF895A" d="M108.098,154.022c0,0-14.316,4.899-15.348,7.228s-2.592,11.688-2.202,20.463s0,21.451,0.78,30.616
		s-0.585,17.355,3.705,15.405s14.663-8.321,15.571-9.947s0.529-10.583,0-32.613C110.045,161.88,109.854,153.827,108.098,154.022z"/>
	<path fill="none" stroke="#4C5250" stroke-width="2" stroke-miterlimit="10" d="M54.25,158c3.677-3.846,20-9.25,21.75-9.25
		s31.75,4,32.75,4.75s2.604,65.032,1.854,65.032S95.25,228,93,228.25S56,221,55,220S51.157,161.235,54.25,158z"/>
	<path fill="none" stroke="#4C5250" stroke-width="2" stroke-miterlimit="10" d="M108.75,153.5c0,0-14.25,6.25-16,7.75
		s-2.25,10.5-1.75,32s0.5,35,2,35"/>
	<path fill="none" stroke="#4C5250" stroke-width="2" stroke-miterlimit="10" d="M83.75,132.5c-0.285-1.995,6-2.75,11.75-2
		s10,2.25,10,4.25s-5,2.5-11.75,1.75S84,134.25,83.75,132.5z"/>
	<line fill="none" stroke="#4C5250" stroke-width="2" stroke-miterlimit="10" x1="105.5" y1="134.75" x2="105.5" y2="153"/>
	<line fill="none" stroke="#4C5250" stroke-width="2" stroke-miterlimit="10" x1="100.5" y1="137" x2="100.5" y2="152.25"/>
	<line fill="none" stroke="#4C5250" stroke-width="2" stroke-miterlimit="10" x1="88.867" y1="135.732" x2="88.867" y2="150"/>
	<line fill="none" stroke="#4C5250" stroke-width="2" stroke-miterlimit="10" x1="83.867" y1="132.247" x2="83.867" y2="149.25"/>
	<path fill="none" stroke="#4C5250" stroke-miterlimit="10" d="M90.158,179.371c0,0-11.611-1.576-21.45-3.51
		c-10.92-2.146-15.795-3.315-15.795-3.315"/>
	<polygon fill="#FF895A" stroke="#4C5250" stroke-miterlimit="10" points="59.737,170.013 59.347,178.593 64.027,179.178 
		64.417,170.598 	"/>
	<polygon fill="#FF895A" stroke="#4C5250" stroke-miterlimit="10" points="79.737,173.013 79.347,181.593 84.027,182.178 
		84.417,173.598 	"/>
</g>
</svg>
